<svg xmlns="http://www.w3.org/2000/svg" width="212" height="212" viewBox="0 0 212 212"><path data-name="シェイプ 1" d="M106 19.1c28.3 0 31.656.108 42.833.618 10.335.472 15.948 2.2 19.683 3.65A32.846 32.846 0 0 1 180.7 31.3a32.846 32.846 0 0 1 7.929 12.188c1.452 3.735 3.178 9.348 3.65 19.683.51 11.177.618 14.53.618 42.833s-.108 31.656-.618 42.833c-.472 10.335-2.2 15.948-3.65 19.683a35.1 35.1 0 0 1-20.117 20.117c-3.735 1.452-9.348 3.178-19.683 3.65-11.176.51-14.528.618-42.833.618s-31.657-.108-42.833-.618c-10.335-.472-15.948-2.2-19.683-3.65A32.844 32.844 0 0 1 31.3 180.7a32.846 32.846 0 0 1-7.929-12.188c-1.452-3.735-3.178-9.348-3.65-19.683C19.207 137.656 19.1 134.3 19.1 106s.108-31.656.618-42.833c.472-10.335 2.2-15.948 3.65-19.683A32.84 32.84 0 0 1 31.3 31.3a32.84 32.84 0 0 1 12.188-7.929c3.735-1.452 9.348-3.178 19.683-3.65C74.344 19.207 77.7 19.1 106 19.1M106 0C77.212 0 73.6.122 62.3.638c-11.283.515-18.988 2.307-25.73 4.927a51.96 51.96 0 0 0-18.779 12.226A51.96 51.96 0 0 0 5.565 36.566C2.945 43.309 1.153 51.014.638 62.3.122 73.6 0 77.212 0 106s.122 32.4.638 43.7c.515 11.282 2.307 18.987 4.927 25.73a51.963 51.963 0 0 0 12.226 18.775 51.96 51.96 0 0 0 18.775 12.226c6.743 2.62 14.448 4.412 25.731 4.927 11.303.52 14.915.642 43.703.642s32.4-.122 43.7-.638c11.282-.515 18.987-2.307 25.73-4.927a54.2 54.2 0 0 0 31-31c2.62-6.743 4.412-14.448 4.927-25.73.521-11.305.643-14.917.643-43.705s-.122-32.4-.638-43.7c-.515-11.283-2.307-18.988-4.927-25.73a51.96 51.96 0 0 0-12.226-18.775 51.963 51.963 0 0 0-18.775-12.23c-6.743-2.62-14.448-4.412-25.73-4.927C138.4.122 134.788 0 106 0zm0 51.567A54.432 54.432 0 1 0 160.432 106 54.432 54.432 0 0 0 106 51.568zm0 89.765A35.333 35.333 0 1 1 141.333 106 35.333 35.333 0 0 1 106 141.333zM162.583 36.7a12.72 12.72 0 1 0 12.72 12.72 12.72 12.72 0 0 0-12.72-12.72z" fill="#0e1618" fill-rule="evenodd"/></svg>